# xmcd
#
# Track frame offsets:
#	150
#	13377
#	27040
#	42607
#	54472
#	65712
#	77932
#	90510
#	101877
#	114315
#	128072
#	146680
#	159032
#	177167
#	190925
#	215285
#
# Disc length: 2990 seconds
#
# Revision: 1
# Processed by: cddbd v1.5.1PL0 Copyright (c) Steve Scherf et al.
# Submitted via: audiograbber 1.83.01
#
DISCID=db0bac10
DTITLE=Bobby Bare - Detroit City
DYEAR=1900
DGENRE=Country
TTITLE0=Detroit City
TTITLE1=Miller´s Cave
TTITLE2=Lincoln Park Inn
TTITLE3=Come Sundown
TTITLE4=(Please Don´t Tell Me) How The Story Ends
TTITLE5=Streets Of Baltimore
TTITLE6=Four Strong Winds
TTITLE7=Daddy What If
TTITLE8=Five Hundret Miles Away From Home
TTITLE9=Ride Me Down Easy
TTITLE10=Tequila Sheila
TTITLE11=Green Green Grass Of Home
TTITLE12=The Jogger
TTITLE13=Marie Lavaux
TTITLE14=The Winner
TTITLE15=Drop Kick Me Jesus
EXTD=
EXTT0=
EXTT1=
EXTT2=
EXTT3=
EXTT4=
EXTT5=
EXTT6=
EXTT7=
EXTT8=
EXTT9=
EXTT10=
EXTT11=
EXTT12=
EXTT13=
EXTT14=
EXTT15=
PLAYORDER=
